<?xml version="1.0" standalone="no"?>
<!DOCTYPE svg PUBLIC "-//W3C//DTD SVG 20010904//EN"
 "http://www.w3.org/TR/2001/REC-SVG-20010904/DTD/svg10.dtd">
<svg version="1.0" xmlns="http://www.w3.org/2000/svg"
 width="660.000000pt" height="341.000000pt" viewBox="0 0 660.000000 341.000000"
 preserveAspectRatio="xMidYMid meet">

<g transform="translate(0.000000,341.000000) scale(0.100000,-0.100000)"
fill="#000000" stroke="none">
<path d="M1955 2584 c-30 -24 -205 -110 -293 -145 -178 -71 -491 -167 -812
-249 -397 -101 -520 -179 -520 -327 1 -64 28 -122 92 -190 129 -137 347 -233
530 -233 74 0 238 33 321 64 l62 23 0 -101 c0 -89 3 -108 27 -158 36 -77 103
-142 191 -184 257 -122 535 -61 748 163 101 105 146 189 217 398 22 66 82 239
132 385 50 146 107 315 126 375 20 61 39 122 44 136 l8 26 -111 7 c-84 5 -113
4 -122 -6 -6 -7 -37 -56 -67 -108 -77 -131 -461 -685 -511 -737 -58 -61 -147
-73 -147 -20 0 32 23 65 176 252 321 393 484 608 472 620 -1 2 -53 5 -115 6
l-111 3 -76 -71 c-41 -39 -128 -111 -193 -162 -165 -127 -598 -430 -647 -452
-50 -23 -129 -25 -146 -4 -26 32 -26 32 395 283 305 182 506 320 568 389 17
20 16 20 -50 26 -109 11 -166 8 -188 -9z"/>
<path d="M3787 2583 c-126 -3 -138 -5 -132 -21 18 -48 155 -254 426 -639 215
-306 292 -421 462 -693 32 -52 60 -96 61 -98 9 -9 387 143 528 211 l106 52
-116 106 c-161 146 -377 330 -679 576 -140 114 -267 218 -282 230 -14 11 -23
24 -19 28 4 4 51 8 105 9 82 0 106 -3 150 -23 60 -26 96 -62 91 -87 -3 -16
-18 -24 -77 -41 -7 -2 75 -68 183 -146 l197 -143 162 -59 c89 -32 189 -67 222
-77 138 -44 286 -87 383 -112 l103 -27 112 74 c106 70 396 285 464 344 l31 28
-296 1 c-325 1 -471 12 -772 60 -128 20 -125 19 -139 63 -18 62 -91 113 -226
159 -149 51 -608 188 -705 211 -61 14 -176 19 -343 14z"/>
<path d="M2906 2428 c-15 -79 -30 -155 -33 -170 l-5 -28 121 0 121 0 0 -672 0
-671 188 6 c160 6 460 32 470 42 7 7 -217 869 -335 1286 -4 14 12 17 113 22
64 4 118 8 120 10 2 2 -27 69 -66 150 -38 80 -70 151 -70 156 0 8 -95 11 -298
11 l-298 0 -28 -142z"/>
</g>
</svg>
