<?xml version="1.0" standalone="no"?>
<!DOCTYPE svg PUBLIC "-//W3C//DTD SVG 20010904//EN"
 "http://www.w3.org/TR/2001/REC-SVG-20010904/DTD/svg10.dtd">
<svg version="1.0" xmlns="http://www.w3.org/2000/svg"
 width="714.000000pt" height="648.000000pt" viewBox="0 0 714.000000 648.000000"
 preserveAspectRatio="xMidYMid meet">

<g transform="translate(0.000000,648.000000) scale(0.100000,-0.100000)"
fill="#000000" stroke="none">
<path d="M606 6443 c-3 -4 -25 -8 -49 -10 -23 -2 -55 -8 -71 -13 -15 -5 -32
-8 -36 -5 -4 3 -13 -2 -20 -10 -7 -8 -23 -15 -37 -15 -31 0 -96 -27 -89 -38 3
-4 -9 -21 -25 -37 -17 -15 -37 -45 -46 -66 -8 -22 -22 -39 -30 -39 -8 0 -13
-8 -12 -17 2 -10 -3 -35 -10 -55 -17 -50 -22 -174 -9 -218 24 -80 43 -128 70
-173 15 -26 28 -52 28 -58 0 -17 35 -55 114 -124 46 -40 130 -91 196 -121 60
-26 79 -37 99 -55 11 -10 104 -46 206 -80 103 -34 192 -68 199 -74 11 -12 75
-49 151 -89 22 -12 46 -29 53 -38 7 -10 18 -18 23 -18 6 0 39 -20 75 -45 35
-25 66 -45 68 -45 3 0 18 -12 35 -27 51 -47 108 -93 114 -93 4 0 45 -28 93
-62 47 -35 93 -67 102 -73 9 -5 27 -20 41 -33 15 -13 58 -44 96 -69 76 -51
158 -114 163 -125 2 -5 10 -8 18 -8 8 0 14 -3 14 -7 1 -5 24 -24 51 -43 28
-19 63 -44 78 -56 14 -12 85 -64 156 -117 72 -53 135 -100 140 -105 6 -4 31
-22 57 -40 25 -18 52 -38 60 -45 7 -7 27 -22 43 -33 27 -17 113 -79 185 -133
149 -111 246 -186 248 -193 2 -4 8 -8 13 -8 5 0 17 -6 26 -14 10 -8 45 -36 79
-63 118 -94 124 -100 124 -132 0 -22 -9 -39 -31 -58 -51 -46 -81 -73 -144
-132 -33 -30 -96 -86 -140 -124 -129 -110 -212 -197 -219 -228 -4 -23 -13 -30
-47 -39 -27 -7 -62 -30 -93 -59 -97 -90 -191 -176 -210 -191 -10 -8 -59 -54
-110 -102 -50 -48 -116 -108 -146 -135 -30 -26 -77 -70 -104 -96 -27 -26 -76
-71 -109 -100 -33 -29 -86 -77 -118 -107 -32 -30 -68 -64 -81 -75 -59 -52
-265 -241 -278 -255 -24 -26 -181 -163 -222 -193 -20 -15 -43 -34 -52 -42 -46
-46 -181 -137 -283 -190 -98 -51 -176 -68 -308 -67 -60 1 -126 2 -145 2 -52 0
-90 -6 -101 -17 -6 -6 -32 -8 -59 -5 -40 4 -51 1 -56 -12 -4 -9 -18 -16 -35
-16 -30 0 -79 -19 -79 -30 0 -4 -25 -20 -55 -36 -47 -24 -55 -32 -51 -50 6
-24 -27 -63 -39 -45 -10 17 -19 13 -32 -14 -6 -15 -7 -27 -2 -31 5 -3 -2 -27
-16 -53 -25 -45 -26 -52 -22 -182 4 -137 6 -153 22 -179 5 -8 8 -25 6 -37 -1
-13 1 -28 6 -35 7 -13 9 -18 12 -37 0 -6 15 -18 31 -28 19 -11 30 -25 30 -39
0 -17 5 -21 20 -17 14 4 21 -1 25 -20 6 -23 34 -39 71 -42 6 0 22 -8 37 -18
14 -9 30 -17 34 -17 4 0 21 -23 36 -51 96 -171 306 -252 512 -200 121 31 219
85 293 161 72 73 116 146 165 275 38 98 64 149 111 210 17 22 38 49 46 60 77
100 348 348 605 554 302 241 926 752 955 781 3 3 61 50 130 104 122 97 174
140 235 195 129 116 632 523 683 553 27 16 30 16 48 0 10 -10 33 -24 51 -31
17 -7 60 -37 94 -67 34 -30 66 -54 69 -54 4 0 56 -38 115 -85 59 -47 128 -94
153 -105 26 -12 72 -47 102 -78 30 -32 67 -65 81 -74 74 -47 258 -223 337
-323 31 -38 65 -76 75 -84 24 -17 77 -100 77 -120 0 -8 11 -26 24 -40 13 -15
28 -40 34 -57 5 -17 33 -64 62 -104 29 -41 58 -87 65 -104 7 -17 25 -42 39
-55 14 -14 26 -32 26 -41 0 -27 116 -115 206 -156 94 -43 170 -48 449 -32 22
1 -50 4 -160 7 -198 6 -201 6 -265 37 -74 35 -158 112 -188 171 -72 140 -67
333 13 530 56 138 167 286 260 346 92 59 248 74 358 34 94 -34 154 -83 290
-236 140 -158 179 -189 56 -46 -144 169 -231 251 -307 289 -38 19 -91 48 -118
64 -114 67 -172 77 -402 73 -133 -3 -272 46 -389 136 -145 111 -233 178 -304
231 -75 56 -229 174 -378 290 -41 32 -76 62 -78 67 -4 12 28 38 345 282 309
238 494 355 622 392 42 12 128 23 245 30 185 12 299 27 325 42 9 6 0 6 -25 2
-53 -11 -216 -7 -276 6 -27 6 -70 20 -96 32 -27 12 -64 28 -83 37 -46 20 -140
80 -166 106 -11 12 -34 33 -50 47 -16 14 -38 36 -49 50 -70 85 -85 106 -85
120 0 9 -9 28 -21 43 -11 14 -17 31 -13 37 3 6 0 22 -7 36 -11 20 -11 26 1 33
11 7 11 11 1 24 -8 9 -10 16 -7 16 4 0 0 7 -8 16 -19 19 -21 34 -3 34 7 0 22
7 33 16 18 15 18 15 -3 9 -19 -5 -23 -2 -23 14 0 12 5 21 10 21 6 0 10 5 10
11 0 5 -5 7 -12 3 -8 -5 -9 -2 -5 10 4 10 7 26 7 37 0 11 7 19 16 19 8 0 13
-4 9 -9 -3 -6 7 -6 27 -1 17 6 34 7 37 4 7 -7 -21 -24 -30 -18 -4 2 -12 -2
-18 -10 -9 -10 -8 -16 4 -26 11 -9 15 -9 15 -1 0 8 8 10 20 6 14 -4 20 -2 20
9 0 8 9 20 20 26 17 9 20 8 20 -8 0 -10 -6 -24 -12 -31 -11 -11 -9 -11 9 -2
25 13 39 31 24 31 -6 0 -11 5 -11 10 0 6 7 10 15 10 8 0 15 8 15 18 0 9 7 26
15 36 8 11 13 28 10 37 -4 12 2 22 17 30 21 11 22 11 9 -4 -8 -10 -9 -17 -3
-17 6 0 15 6 19 14 4 7 18 17 30 20 18 6 22 4 17 -7 -9 -23 11 -28 24 -6 10
16 10 21 -3 25 -14 6 -13 8 2 19 9 7 23 10 30 8 10 -4 12 2 8 26 -4 25 -2 31
12 32 12 0 13 2 5 6 -10 4 -10 8 0 21 10 12 10 16 0 19 -6 3 -9 10 -5 16 4 7
0 8 -11 4 -10 -4 -15 -3 -11 3 9 15 26 12 41 -7 9 -13 9 -22 2 -30 -6 -7 -6
-13 -2 -13 5 0 15 9 21 19 10 15 10 21 0 24 -16 6 -8 13 23 21 19 6 21 5 10
-3 -12 -9 -11 -11 8 -11 12 0 22 5 22 12 0 6 3 8 6 5 4 -4 1 -14 -7 -23 -15
-19 -21 -47 -8 -38 8 5 77 99 104 143 6 8 15 20 21 26 20 19 84 113 84 123 0
18 -36 32 -83 32 -92 0 -245 -64 -391 -165 -77 -52 -97 -32 -38 40 13 16 42
67 64 112 49 101 48 145 -4 197 -35 35 -101 59 -116 44 -6 -6 -25 -12 -44 -13
-18 -2 -33 -4 -33 -5 0 -1 -13 -3 -29 -4 -16 -1 -31 -7 -34 -14 -2 -7 -12 -12
-23 -12 -10 0 -19 -4 -19 -10 0 -5 -7 -10 -16 -10 -9 0 -23 -8 -31 -17 -8 -10
-12 -12 -8 -5 3 6 2 12 -2 12 -5 0 -13 -10 -18 -22 -6 -14 -24 -26 -47 -31
-22 -5 -38 -15 -38 -23 0 -8 -7 -14 -15 -14 -8 0 -15 -4 -15 -9 0 -5 -11 -12
-25 -15 -14 -4 -24 -12 -22 -19 1 -6 -3 -11 -9 -10 -6 1 -17 -10 -25 -24 -8
-14 -27 -40 -44 -58 -55 -58 -75 -87 -99 -139 -34 -72 -54 -149 -50 -187 2
-17 1 -36 -2 -41 -3 -5 -7 -35 -9 -66 -1 -31 -8 -79 -14 -107 -7 -27 -12 -60
-12 -72 1 -13 -3 -23 -8 -23 -10 0 -18 -20 -26 -58 -2 -11 -16 -46 -32 -78
-26 -54 -35 -68 -78 -115 -8 -9 -15 -19 -15 -22 0 -22 -410 -408 -540 -507
-18 -14 -42 -35 -53 -48 -29 -31 -47 -28 -113 23 -34 26 -68 45 -83 45 -21 0
-23 2 -11 10 12 8 9 10 -12 10 -16 0 -28 5 -28 10 0 6 -7 10 -15 10 -9 0 -18
8 -22 18 -9 25 -59 68 -231 200 -84 64 -183 141 -220 170 -37 29 -173 132
-302 229 -129 97 -266 200 -305 230 -38 30 -105 77 -148 104 -42 28 -77 55
-77 59 0 12 -277 230 -395 310 -153 105 -390 326 -456 426 -22 34 -83 126
-140 211 -41 61 -116 137 -168 171 -31 20 -58 40 -59 45 -2 4 -7 5 -12 2 -4
-3 -13 2 -20 10 -7 8 -17 15 -22 15 -5 0 -19 9 -31 21 -26 25 -193 109 -217
109 -9 0 -20 3 -24 7 -10 11 -79 33 -102 33 -11 0 -24 3 -28 7 -9 10 -42 14
-50 6z m94 -318 c-78 -51 -88 -61 -115 -119 -16 -35 -36 -70 -43 -79 -8 -9
-13 -29 -12 -44 1 -15 1 -55 0 -88 -1 -51 -3 -56 -12 -35 -17 41 -4 169 22
225 45 95 103 150 189 181 63 23 58 15 -29 -41z m185 -14 c46 -14 65 -26 83
-52 13 -19 30 -38 38 -42 8 -4 14 -13 14 -20 0 -7 6 -24 14 -39 16 -30 20
-134 6 -143 -6 -4 -10 -14 -10 -24 0 -29 -30 -81 -46 -81 -18 0 -44 -24 -44
-39 0 -6 -4 -11 -10 -11 -5 0 -10 -6 -10 -14 0 -24 -82 -48 -164 -49 l-76 -1
-49 47 c-45 43 -49 51 -41 73 14 36 12 87 -4 109 -17 24 -10 52 25 93 16 18
32 50 35 73 7 42 19 52 70 62 17 3 47 22 66 41 20 20 38 36 40 36 1 0 30 -9
63 -19z m511 -323 c-7 -5 -7 -8 2 -8 7 0 11 -4 8 -9 -4 -5 0 -12 6 -15 10 -5
10 -7 -1 -12 -11 -5 -11 -8 0 -15 12 -7 12 -12 1 -30 -13 -20 -12 -21 5 -15
17 6 17 5 1 -8 -10 -7 -18 -19 -18 -25 0 -7 -7 -19 -15 -28 -8 -8 -13 -19 -10
-24 4 -5 2 -9 -3 -9 -4 0 -15 -16 -22 -35 -9 -22 -19 -34 -27 -31 -9 4 -15 -7
-19 -34 -5 -31 -10 -38 -25 -35 -13 3 -19 -2 -19 -16 0 -10 -6 -18 -12 -16 -7
1 -12 -6 -10 -15 3 -16 -14 -24 -42 -19 -5 1 -19 -8 -32 -20 -13 -12 -24 -19
-24 -15 0 5 -7 3 -15 -4 -11 -9 -15 -9 -15 -1 0 7 -5 9 -10 6 -6 -4 -8 -11 -5
-16 4 -5 -1 -9 -9 -9 -8 0 -18 5 -22 12 -5 7 -3 8 6 3 8 -5 11 -3 8 6 -5 15
39 42 53 33 5 -3 23 9 41 26 24 24 33 28 39 18 7 -10 9 -9 9 5 0 9 10 22 23
28 56 26 128 202 130 318 1 46 3 49 18 33 11 -12 13 -19 5 -24z m118 -413
c-15 -22 -31 -36 -21 -17 2 4 7 15 10 25 4 9 11 17 17 17 6 0 3 -11 -6 -25z
m4216 -39 c0 -2 -8 -10 -17 -17 -16 -13 -17 -12 -4 4 13 16 21 21 21 13z m54
-21 c-4 -8 -10 -15 -15 -15 -5 0 -9 7 -9 15 0 8 7 15 15 15 9 0 12 -6 9 -15z
m-174 -19 c0 -11 -19 -15 -25 -6 -3 5 1 10 9 10 9 0 16 -2 16 -4z m-136 -27
c-3 -5 -10 -7 -15 -3 -5 3 -7 10 -3 15 3 5 10 7 15 3 5 -3 7 -10 3 -15z m-36
-21 c-3 -7 -11 -13 -19 -13 -8 0 -13 -8 -11 -19 2 -12 -1 -16 -9 -10 -9 5 -11
1 -7 -14 7 -24 -9 -33 -35 -20 -10 5 -21 7 -25 4 -3 -3 1 -6 9 -6 16 0 -63
-75 -89 -84 -11 -3 -9 0 6 10 12 9 22 21 22 27 0 12 50 67 60 67 4 0 24 16 44
35 38 35 61 45 54 23z m72 -23 c-7 -8 -17 -15 -22 -15 -6 0 -5 7 2 15 7 8 17
15 22 15 6 0 5 -7 -2 -15z m60 0 c0 -2 -10 -9 -22 -15 -22 -11 -22 -10 -4 4
21 17 26 19 26 11z m-3697 -72 c-15 -21 -28 -40 -30 -42 -2 -2 -3 1 -3 7 0 11
48 72 56 72 3 0 -7 -17 -23 -37z m3639 -25 c-8 -8 -29 -15 -55 -17 -5 -1 -5
-6 -1 -13 4 -6 3 -8 -4 -4 -6 3 -13 2 -17 -4 -3 -5 -11 -10 -17 -10 -6 0 6 14
27 30 21 17 44 30 51 30 8 0 14 6 15 13 0 9 2 8 6 -1 3 -8 1 -18 -5 -24z
m-3631 -34 c-11 -15 -21 -23 -21 -18 0 14 31 56 37 50 3 -3 -4 -17 -16 -32z
m3494 -4 c-3 -5 -12 -10 -18 -10 -7 0 -6 4 3 10 19 12 23 12 15 0z m-3575 -30
c-6 -11 -13 -20 -16 -20 -2 0 0 9 6 20 6 11 13 20 16 20 2 0 0 -9 -6 -20z
m211 -37 c-11 -16 -30 -39 -42 -53 l-21 -25 17 30 c18 30 55 75 62 75 3 0 -5
-12 -16 -27z m3294 -3 c-9 -14 8 -13 23 2 7 7 12 8 12 2 0 -6 -9 -19 -21 -30
-17 -15 -22 -16 -29 -4 -5 9 -5 19 2 27 12 15 22 17 13 3z m-3275 -74 c-45
-59 -64 -75 -35 -28 33 51 67 93 72 88 3 -2 -14 -30 -37 -60z m3380 33 c-7
-11 -14 -18 -17 -15 -3 3 0 12 7 21 18 21 23 19 10 -6z m-37 -8 c-3 -13 -11
-17 -25 -13 -20 5 -20 6 -3 19 26 18 34 16 28 -6z m-2888 -311 c-9 -17 -23
-34 -30 -37 -8 -3 -13 -8 -11 -12 3 -4 -4 -13 -15 -20 -25 -15 -22 -9 30 62
38 52 51 56 26 7z m2648 -40 c-3 -11 -7 -20 -9 -20 -2 0 -4 9 -4 20 0 11 4 20
9 20 5 0 7 -9 4 -20z m-2576 -25 c0 -8 -4 -12 -9 -9 -4 3 -8 0 -8 -7 0 -7 -2
-10 -5 -7 -7 7 5 38 14 38 4 0 8 -7 8 -15z m2563 -35 c0 -5 -4 -10 -10 -10 -5
0 -10 5 -10 10 0 6 5 10 10 10 6 0 10 -4 10 -10z m-2454 -55 c-6 -19 -19 -38
-28 -41 -10 -3 -18 -10 -18 -16 0 -6 -2 -9 -5 -6 -9 9 7 38 21 38 8 0 14 8 14
18 0 14 17 42 26 42 0 0 -4 -16 -10 -35z m2554 -66 c-14 -11 -19 -18 -12 -14
7 4 20 1 29 -7 15 -11 16 -11 10 4 -10 26 13 33 30 9 8 -12 44 -51 80 -86 36
-36 61 -65 54 -65 -6 0 -11 -5 -11 -11 0 -7 9 -9 21 -6 14 4 37 -6 69 -29 56
-40 171 -94 200 -94 42 0 9 -18 -45 -25 -31 -3 -87 -17 -124 -30 -80 -28 -263
-118 -307 -152 -17 -13 -36 -23 -42 -23 -7 0 -12 -4 -12 -9 0 -5 -10 -13 -21
-16 -18 -6 -122 -80 -177 -126 -7 -6 -23 -16 -36 -22 -12 -7 -53 -43 -90 -80
-37 -37 -83 -74 -102 -82 -20 -8 -33 -19 -30 -24 3 -5 -2 -15 -11 -22 -14 -12
-16 -12 -8 1 5 8 -7 -1 -26 -20 -38 -38 -174 -140 -187 -140 -4 0 -25 -16 -46
-35 -21 -19 -43 -32 -49 -28 -5 3 -7 1 -3 -5 3 -6 -8 -21 -26 -33 -31 -22
-104 -79 -176 -137 -17 -15 -37 -28 -42 -28 -6 -1 -16 -2 -22 -3 -10 -1 -9 -4
1 -10 10 -7 5 -13 -23 -26 -19 -9 -48 -30 -63 -45 -16 -16 -50 -40 -77 -54
-27 -14 -43 -26 -36 -26 7 0 0 -10 -16 -22 -16 -13 -38 -30 -48 -38 -11 -8
-33 -29 -50 -46 -38 -38 -66 -49 -79 -32 -6 10 -8 9 -4 -3 6 -20 -68 -85 -109
-95 -24 -6 -26 -8 -9 -14 15 -5 16 -8 4 -12 -9 -3 -26 2 -40 12 l-24 19 37 15
c20 9 40 21 44 27 5 8 3 9 -6 4 -8 -5 -11 -4 -7 3 4 5 17 8 29 4 17 -4 20 -2
15 11 -4 10 3 21 17 31 13 8 45 33 71 56 45 39 73 48 45 15 -7 -9 -10 -18 -6
-22 3 -3 6 -1 6 5 0 7 9 12 20 12 23 0 26 10 8 29 -11 11 -9 15 5 25 10 6 31
21 45 34 107 92 122 103 122 88 0 -9 -4 -16 -10 -16 -5 0 -10 -5 -10 -10 0 -6
13 -1 29 11 17 12 27 28 25 37 -3 11 14 30 48 55 29 21 70 52 90 70 20 17 62
52 93 77 31 25 62 50 68 55 7 6 46 37 87 70 41 32 80 64 86 70 32 29 55 45 64
45 6 0 10 5 10 10 0 6 6 10 13 10 7 0 20 9 30 20 9 11 24 20 32 20 8 0 15 4
15 10 0 5 12 26 26 47 22 33 25 46 21 94 -3 31 -12 70 -21 87 -10 20 -12 33
-6 37 6 4 8 10 5 15 -3 5 4 8 15 7 20 -1 29 -17 10 -17 -5 0 -10 -5 -10 -11 0
-5 5 -7 10 -4 13 8 13 -1 1 -24 -6 -10 -6 -23 0 -32 6 -10 9 -7 9 13 0 15 6
31 14 35 19 10 21 24 6 33 -8 5 -8 11 2 21 8 8 17 22 21 31 3 9 18 25 34 35
40 26 62 50 55 59 -4 3 0 4 8 2 8 -3 24 -1 35 4 19 9 19 8 2 -5 -10 -9 -14
-18 -9 -21 5 -3 15 1 22 9 17 20 25 19 37 -7 l10 -22 5 22 c4 13 2 22 -5 22
-7 0 -1 6 13 13 26 13 35 54 10 49 -11 -3 -11 0 0 13 9 10 16 12 25 5 6 -5 15
-7 19 -3 4 4 -4 13 -16 20 -22 11 -22 12 -3 13 49 3 90 20 47 20 -12 0 -22 5
-22 11 0 5 5 7 10 4 6 -3 10 -1 10 4 0 6 5 11 11 11 5 0 7 -4 4 -10 -3 -5 -1
-10 4 -10 6 0 11 7 11 16 0 15 23 44 34 44 3 0 6 -9 6 -20 0 -11 -3 -19 -7
-19 -22 4 -25 -3 -7 -17 15 -12 15 -15 2 -10 -19 6 -34 -22 -18 -38 7 -7 10
-4 10 10 0 12 3 15 8 7 5 -8 12 -8 26 2 20 15 26 75 11 108 -7 16 -3 18 26 15
18 -2 35 -10 37 -17 3 -10 0 -11 -17 -2 -21 12 -31 -2 -11 -14 8 -5 8 -11 0
-20 -8 -9 -8 -15 0 -20 6 -3 8 -11 5 -16 -4 -5 -1 -9 4 -9 6 0 11 7 11 16 0 8
5 12 10 9 6 -3 10 1 10 10 0 9 4 14 9 11 5 -3 20 6 35 21 14 14 26 20 26 14 0
-7 4 -10 8 -7 5 3 21 7 37 10 38 7 86 66 54 66 -5 0 -8 -4 -4 -9 3 -5 1 -12
-5 -16 -5 -3 -10 -2 -10 2 0 13 -39 13 -46 1 -4 -7 -2 -8 4 -4 7 4 12 2 12 -3
0 -14 -17 -14 -25 -1 -5 8 -11 7 -21 -1 -12 -10 -13 -9 -7 7 6 17 5 17 -10 5
-22 -17 -34 -7 -17 14 19 23 4 48 -25 43 -19 -4 -23 -2 -15 7 5 6 8 15 5 19
-3 3 1 2 7 -4 16 -13 38 -13 38 1 0 5 -5 7 -12 3 -7 -5 -9 -2 -6 7 3 8 -1 20
-8 27 -9 8 -14 9 -14 2 0 -6 -7 -19 -17 -28 -15 -16 -16 -15 -11 11 3 15 1 27
-5 27 -6 0 0 11 13 25 13 14 28 25 34 25 6 0 0 -10 -14 -21z m-2520 -23 c0 -3
-4 -8 -10 -11 -5 -3 -10 -1 -10 4 0 6 5 11 10 11 6 0 10 -2 10 -4z m2470 -42
c0 -8 -4 -12 -10 -9 -5 3 -10 10 -10 16 0 5 5 9 10 9 6 0 10 -7 10 -16z
m-2310 -1 c0 -5 -5 -15 -10 -23 -8 -12 -10 -11 -10 8 0 12 5 22 10 22 6 0 10
-3 10 -7z m70 -42 c0 -5 -6 -14 -14 -20 -12 -10 -13 -8 -9 8 5 21 23 30 23 12z
m2312 -13 c-7 -7 -12 -22 -12 -35 0 -13 -6 -23 -12 -23 -10 0 -9 -3 1 -9 9 -6
10 -11 2 -15 -6 -4 -11 -4 -12 1 0 4 -3 20 -5 36 -5 29 12 56 36 57 11 0 11
-3 2 -12z m-2274 -36 c-6 -15 -21 -35 -34 -45 -21 -16 -24 -16 -24 -2 0 9 7
18 15 21 8 4 15 12 15 18 0 13 20 36 31 36 4 0 3 -12 -3 -28z m2213 -15 c-13
-13 -15 1 -4 30 7 17 8 17 11 -1 2 -10 -1 -23 -7 -29z m-2316 16 c-11 -3 -27
-10 -35 -17 -13 -10 -13 -9 -1 7 7 9 23 16 35 16 20 -1 20 -2 1 -6z m162 -45
c-3 -8 -6 -5 -6 6 -1 11 2 17 5 13 3 -3 4 -12 1 -19z m2103 -18 c0 -5 -4 -10
-10 -10 -5 0 -10 5 -10 10 0 6 5 10 10 10 6 0 10 -4 10 -10z m-60 -4 c0 -3 -4
-8 -10 -11 -5 -3 -10 -1 -10 4 0 6 5 11 10 11 6 0 10 -2 10 -4z m-2080 -26 c0
-5 -4 -10 -10 -10 -5 0 -10 5 -10 10 0 6 5 10 10 10 6 0 10 -4 10 -10z m306
-78 c-17 -16 -18 -16 -5 5 7 12 15 20 18 17 3 -2 -3 -12 -13 -22z m1674 -62
c0 -5 -4 -10 -10 -10 -5 0 -10 5 -10 10 0 6 5 10 10 10 6 0 10 -4 10 -10z
m-1423 -64 c-3 -8 -1 -16 5 -18 14 -5 -48 -104 -69 -112 -19 -8 -35 2 -27 16
4 7 9 7 13 0 4 -7 12 -8 21 -2 12 8 13 10 1 10 -11 0 -10 5 5 23 10 12 12 16
4 10 -23 -21 -35 -15 -15 7 10 11 24 20 31 20 7 0 16 5 20 12 4 7 3 8 -4 4
-15 -9 -15 -1 0 24 15 23 23 26 15 6z m1223 -17 c0 -5 -10 -14 -22 -20 -20
-11 -21 -10 -11 3 7 8 11 17 8 20 -3 2 2 5 10 5 8 0 15 -4 15 -8z m-1460 -3
c0 -2 -7 -7 -16 -10 -8 -3 -12 -2 -9 4 6 10 25 14 25 6z m310 -1 c0 -2 -10 -9
-22 -15 -22 -11 -22 -10 -4 4 21 17 26 19 26 11z m38 -37 c-3 -7 -12 -14 -22
-14 -13 -2 -13 -1 -1 3 8 2 13 9 10 14 -4 5 -1 9 5 9 7 0 10 -6 8 -12z m47
-19 c-6 -29 -6 -30 13 -20 25 13 55 14 48 2 -4 -5 0 -12 6 -15 7 -3 4 -4 -6
-3 -12 1 -24 -7 -31 -19 l-11 -22 -25 22 c-28 24 -32 62 -8 77 21 13 21 12 14
-22z m-267 -18 c-9 -15 -9 -23 3 -37 9 -12 10 -15 1 -10 -8 5 -26 -2 -47 -18
-20 -16 -36 -22 -40 -16 -8 13 17 38 33 32 6 -2 12 1 12 8 0 14 32 59 43 60 4
0 2 -9 -5 -19z m132 -10 c-5 -11 -14 -22 -19 -25 -5 -3 -12 -33 -16 -66 -10
-82 -26 -88 -22 -7 2 43 10 72 23 90 23 32 50 38 34 8z m85 9 c-3 -5 -11 -10
-16 -10 -6 0 -7 5 -4 10 3 6 11 10 16 10 6 0 7 -4 4 -10z m30 -41 c11 0 14 -3
7 -6 -6 -2 -10 -8 -7 -13 3 -5 -2 -16 -11 -25 -15 -15 -15 -17 2 -30 11 -8 25
-15 33 -15 11 0 11 -3 2 -14 -11 -13 -15 -12 -32 5 -23 23 -49 25 -49 4 0 -8
-4 -15 -10 -15 -20 0 -9 -18 21 -38 19 -12 27 -22 20 -26 -6 -4 -23 2 -38 14
l-28 21 -9 -20 c-5 -12 -15 -21 -23 -21 -16 0 -16 1 -2 37 6 15 10 30 10 33 0
3 7 9 15 13 10 6 12 13 4 27 -13 25 -13 30 3 30 15 0 47 35 47 52 0 9 3 9 12
0 7 -7 21 -12 33 -13z m135 0 c0 -4 -6 -10 -12 -13 -7 -3 -3 -3 10 0 15 4 22
1 22 -10 0 -10 6 -13 15 -10 8 4 21 1 29 -5 7 -6 15 -9 18 -6 2 3 5 -3 5 -12
0 -10 -5 -21 -11 -25 -6 -4 1 -8 17 -8 15 0 27 -5 27 -11 0 -5 -4 -7 -10 -4
-5 3 -10 2 -10 -4 0 -6 -10 -15 -21 -22 -15 -8 -19 -8 -15 0 4 6 0 19 -10 28
-16 16 -16 16 -10 -5 7 -21 7 -22 -22 -5 l-29 16 21 21 21 21 -30 5 c-19 4
-31 1 -33 -7 -3 -9 -8 -10 -21 -1 -21 13 -17 48 6 48 8 0 12 4 8 9 -3 6 4 9
15 8 11 -1 20 -4 20 -8z m-320 -17 c0 -9 -54 -42 -69 -42 -21 0 -10 17 22 33
37 18 47 20 47 9z m-13 -67 c-6 -19 -14 -35 -19 -35 -12 0 -10 44 4 58 21 21
26 13 15 -23z m1182 -4 c30 -42 27 -93 -8 -133 -16 -18 -75 -69 -131 -113 -57
-44 -134 -105 -171 -135 -37 -30 -100 -81 -141 -112 -40 -32 -91 -73 -113 -93
-22 -19 -44 -35 -49 -35 -4 0 -40 -28 -80 -63 -39 -35 -138 -116 -221 -180
-82 -64 -195 -152 -250 -196 -54 -45 -107 -83 -117 -86 -9 -4 -20 -14 -23 -23
-3 -9 -27 -33 -52 -52 -26 -19 -66 -51 -89 -70 -23 -19 -54 -44 -70 -55 -16
-11 -47 -36 -69 -56 -22 -19 -74 -62 -115 -95 -41 -32 -77 -61 -80 -64 -26
-27 -74 -59 -81 -54 -5 3 -9 -2 -9 -10 0 -22 -60 -62 -70 -46 -5 9 -9 9 -14 1
-4 -6 -1 -11 6 -11 8 -1 5 -7 -7 -16 -11 -8 -29 -22 -40 -32 -11 -9 -33 -23
-48 -31 -15 -8 -27 -18 -27 -23 0 -4 -7 -8 -15 -8 -8 0 -15 -4 -15 -9 0 -5
-12 -11 -27 -13 -20 -2 -29 -9 -31 -26 -2 -12 -8 -20 -13 -17 -5 3 -6 -2 -3
-12 5 -16 4 -16 -10 1 -15 18 -21 15 -17 -8 1 -5 -5 -6 -13 -3 -10 4 -13 1
-10 -8 3 -8 -5 -19 -18 -26 -26 -14 -54 -21 -43 -11 4 4 12 7 18 7 7 1 11 6 9
13 -1 7 2 12 8 12 5 0 10 7 10 15 0 8 4 15 9 15 5 0 13 9 16 20 4 11 10 18 14
15 5 -2 18 7 31 20 15 16 27 22 34 15 8 -6 12 -3 12 10 0 10 -5 16 -10 13 -5
-3 -6 -1 -2 5 11 18 26 14 26 -5 1 -10 9 -1 19 20 17 37 18 38 36 20 18 -17
19 -17 12 1 -6 15 2 28 35 57 24 21 49 39 56 39 6 0 12 5 12 10 0 6 7 10 15
10 8 0 15 5 15 10 0 6 6 10 14 10 8 0 17 9 21 19 4 13 12 18 22 14 10 -4 14
-2 10 4 -4 6 6 22 21 36 54 50 91 82 113 97 12 8 34 25 49 38 15 12 33 22 40
22 7 0 10 6 7 14 -3 8 11 21 39 35 24 13 51 35 59 49 8 15 14 23 15 18 0 -5 8
0 18 11 9 11 26 23 36 26 10 4 16 10 13 14 -4 3 12 19 34 35 22 16 42 35 46
43 3 8 11 15 18 15 8 0 30 16 51 35 20 19 40 35 44 35 4 0 28 20 54 44 25 25
54 47 64 50 11 4 25 17 32 31 7 14 23 28 34 31 37 12 65 38 66 62 0 15 6 22
21 22 35 0 58 19 80 68 21 46 34 62 54 62 5 0 -1 -7 -13 -16 -23 -16 -30 -44
-12 -44 15 0 60 50 60 65 0 7 12 16 28 20 46 11 62 32 50 66 -8 22 -6 32 5 43
8 8 17 12 21 9 3 -4 6 3 6 15 0 16 6 22 21 22 11 0 17 5 14 10 -3 6 0 10 7 10
8 0 31 16 52 35 28 26 48 35 72 35 28 0 34 -4 34 -21 0 -11 5 -19 12 -17 16 6
40 79 34 104 -4 13 1 27 12 37 17 15 20 15 45 -9 27 -25 47 -25 47 0 0 8 -9
20 -20 27 -20 14 -20 14 1 47 l21 33 24 -48 24 -48 -4 57 c-6 76 12 93 54 53
28 -27 50 -27 50 0 0 8 -9 19 -20 25 -20 11 -28 40 -11 40 5 0 11 7 13 15 2
12 11 9 38 -14 19 -17 38 -30 43 -31 16 0 6 36 -14 48 -11 7 -19 19 -17 27 4
16 107 95 125 95 6 0 21 -13 32 -29z m-1259 -13 c0 -4 -4 -8 -9 -8 -6 0 -12 4
-15 8 -3 5 1 9 9 9 8 0 15 -4 15 -9z m360 6 c0 -3 -11 -21 -25 -40 -14 -19
-37 -50 -51 -69 -19 -27 -29 -33 -39 -25 -10 8 -7 17 16 41 16 17 26 35 23 40
-3 5 -1 9 4 9 6 0 20 11 33 25 23 23 39 32 39 19z m42 -47 c-16 -18 -15 -20 9
-41 20 -18 23 -24 13 -34 -7 -7 -22 -12 -32 -12 -10 0 -24 -10 -30 -22 -11
-23 -11 -23 -8 3 3 17 -1 26 -10 26 -8 0 -14 -5 -13 -11 3 -26 -2 -36 -18 -36
-16 1 -16 2 1 15 18 13 15 20 -6 16 -5 0 -8 3 -8 8 0 9 23 21 37 20 9 -1 43
71 43 93 0 16 3 16 20 6 18 -12 18 -13 2 -31z m-134 -127 c15 -1 15 -2 -2 -15
-10 -7 -15 -18 -11 -24 3 -6 2 -11 -3 -11 -5 0 -12 8 -16 18 -3 9 -9 23 -12
31 -5 10 -2 12 10 8 10 -4 25 -7 34 -7z m510 -152 c-3 -7 -13 -15 -23 -16 -15
-4 -16 -2 -4 12 17 19 32 21 27 4z m327 -68 c-3 -5 -1 -10 4 -10 10 0 46 -28
90 -70 9 -8 30 -24 46 -34 17 -11 34 -25 38 -33 4 -7 14 -13 21 -13 8 0 20 -8
27 -17 8 -9 68 -56 134 -105 66 -49 138 -102 160 -119 22 -16 92 -68 155 -115
63 -46 122 -91 131 -98 68 -56 189 -124 332 -185 26 -11 47 -25 47 -32 0 -16
-42 -89 -51 -89 -4 0 -11 -10 -14 -22 -11 -34 -45 -67 -63 -61 -12 5 -14 1 -9
-19 5 -18 2 -28 -8 -32 -8 -3 -15 -15 -15 -27 0 -23 -30 -79 -42 -79 -4 0 -8
-7 -8 -15 0 -9 -7 -18 -15 -21 -8 -4 -12 -10 -9 -15 3 -5 1 -9 -5 -9 -5 0 -13
-10 -16 -21 -6 -17 -9 -19 -16 -8 -13 20 -11 1 2 -23 9 -16 8 -19 -2 -13 -9 6
-11 2 -7 -13 4 -12 2 -22 -3 -22 -5 0 -8 -3 -8 -7 4 -24 -5 -21 -39 13 -21 22
-60 68 -87 104 -83 108 -252 269 -386 369 -64 47 -172 132 -316 247 -17 14
-51 40 -76 57 -117 81 -337 253 -336 262 0 5 15 22 33 37 l34 28 38 -30 c40
-33 61 -35 78 -8 8 13 6 21 -7 35 -16 18 -15 21 13 51 16 18 27 32 25 32 -15
0 42 70 82 102 51 40 58 44 48 28z m-166 -137 c-7 -10 -22 -28 -34 -41 -23
-27 -22 -33 7 -48 11 -6 17 -14 12 -17 -5 -3 -24 8 -41 24 l-33 28 47 36 c51
39 62 44 42 18z m-482 -75 c-3 -7 -5 -2 -5 12 0 14 2 19 5 13 2 -7 2 -19 0
-25z m-57 -11 c0 -2 -9 -12 -20 -22 -24 -21 -27 -14 -4 9 15 15 24 20 24 13z
m-93 -83 c-7 -7 -37 7 -37 17 0 6 9 5 21 -1 11 -7 19 -14 16 -16z m23 -34 c0
-5 -5 -10 -11 -10 -5 0 -7 5 -4 10 3 6 8 10 11 10 2 0 4 -4 4 -10z m-120 -34
c0 -3 -4 -8 -10 -11 -5 -3 -10 -1 -10 4 0 6 5 11 10 11 6 0 10 -2 10 -4z m30
-36 c0 -5 -10 -15 -22 -21 -23 -12 -23 -12 -4 10 21 23 26 26 26 11z m-100
-70 c0 -5 -2 -10 -4 -10 -3 0 -8 5 -11 10 -3 6 -1 10 4 10 6 0 11 -4 11 -10z
m-110 -42 c0 -4 -4 -8 -9 -8 -6 0 -12 4 -15 8 -3 5 1 9 9 9 8 0 15 -4 15 -9z
m-32 -68 c-2 -7 -10 1 -17 16 -12 27 -11 28 4 12 10 -9 16 -21 13 -28z m-48
-11 c0 -4 -11 -2 -24 4 -13 7 -22 15 -20 19 5 8 44 -13 44 -23z m-30 -39 c0
-5 -2 -10 -4 -10 -3 0 -8 5 -11 10 -3 6 -1 10 4 10 6 0 11 -4 11 -10z m-113
-32 c-3 -8 -6 -5 -6 6 -1 11 2 17 5 13 3 -3 4 -12 1 -19z m343 -8 c13 -9 13
-11 0 -20 -8 -6 -27 -9 -42 -7 -22 3 -25 1 -17 -10 9 -10 7 -13 -6 -13 -11 0
-15 -5 -12 -14 4 -10 1 -13 -7 -10 -8 3 -22 -3 -32 -14 -11 -10 -28 -25 -39
-31 -14 -9 -15 -11 -3 -7 10 3 20 1 23 -3 3 -5 -9 -8 -25 -7 -27 2 -35 -4 -31
-26 0 -4 -5 -5 -13 -2 -7 3 -19 -2 -26 -11 -7 -8 -22 -15 -34 -14 -15 0 -17 2
-6 6 8 4 27 19 42 35 14 15 31 28 37 28 6 0 11 5 11 10 0 6 8 14 18 17 9 4 24
14 32 23 27 28 94 80 105 80 5 0 17 -5 25 -10z m-400 -102 c0 -5 -9 -3 -20 4
-11 7 -20 18 -20 25 0 9 6 7 20 -4 11 -10 20 -21 20 -25z m304 -2 c-3 -9 -13
-16 -22 -16 -13 0 -12 3 3 20 20 23 29 21 19 -4z m-397 -88 c-3 -8 -6 -5 -6 6
-1 11 2 17 5 13 3 -3 4 -12 1 -19z m223 -18 c-20 -13 -43 -13 -35 0 3 6 16 10
28 10 18 0 19 -2 7 -10z m60 0 c-20 -13 -33 -13 -25 0 3 6 14 10 23 10 15 0
15 -2 2 -10z m-131 -51 c-18 -15 -35 -26 -37 -24 -7 7 53 63 62 58 4 -3 -7
-18 -25 -34z m-261 11 c-7 -11 -16 -20 -20 -20 -5 0 -3 9 4 20 7 11 16 20 20
20 5 0 3 -9 -4 -20z m22 -30 c0 -5 -5 -10 -11 -10 -5 0 -7 5 -4 10 3 6 8 10
11 10 2 0 4 -4 4 -10z m165 -40 c3 -5 1 -10 -4 -10 -6 0 -11 5 -11 10 0 6 2
10 4 10 3 0 8 -4 11 -10z m-291 -56 c3 -8 2 -12 -4 -9 -6 3 -10 10 -10 16 0
14 7 11 14 -7z m-147 -56 c-3 -7 -5 -2 -5 12 0 14 2 19 5 13 2 -7 2 -19 0 -25z
m-342 -448 c-3 -5 -12 -7 -20 -3 -21 7 -19 13 6 13 11 0 18 -4 14 -10z m-95
-60 c0 -5 -4 -10 -10 -10 -5 0 -10 5 -10 10 0 6 5 10 10 10 6 0 10 -4 10 -10z
m-10 -28 c0 -5 -7 -9 -15 -9 -8 0 -12 4 -9 9 3 4 9 8 15 8 5 0 9 -4 9 -8z
m-1310 -682 c0 -5 -4 -10 -9 -10 -6 0 -13 5 -16 10 -3 6 1 10 9 10 9 0 16 -4
16 -10z m-103 -61 c15 -7 46 -15 68 -18 33 -5 41 -10 43 -30 3 -22 23 -51 35
-51 3 0 1 17 -4 37 -10 49 -3 54 27 20 16 -19 23 -36 19 -49 -4 -12 0 -25 12
-36 21 -20 53 -78 53 -97 0 -7 5 -15 11 -17 13 -4 13 -112 0 -155 -5 -18 -7
-33 -3 -33 3 0 -3 -7 -14 -15 -18 -14 -18 -14 5 -15 17 0 22 -4 17 -16 -3 -9
-6 -19 -6 -23 0 -3 -17 -15 -37 -26 -20 -11 -48 -32 -63 -47 -27 -27 -95 -52
-113 -41 -5 3 -13 0 -17 -7 -9 -14 -248 -21 -257 -7 -2 4 -19 7 -37 7 -23 0
-38 7 -47 20 -9 13 -27 21 -46 23 -23 1 -33 7 -33 18 0 9 -6 22 -14 28 -11 10
-16 8 -21 -8 -3 -12 -11 -21 -17 -21 -5 0 -7 7 -4 16 3 9 1 34 -6 56 -9 32 -9
41 2 48 8 5 18 6 22 4 10 -6 1 73 -11 95 -6 11 0 33 20 71 16 30 29 67 29 82
0 20 8 32 30 43 31 16 69 51 92 84 10 14 33 23 74 30 33 5 75 16 94 24 44 19
61 20 97 6z m-262 -19 c-10 -11 -21 -17 -24 -14 -3 3 3 12 13 20 28 20 32 17
11 -6z m518 -5 c-3 -8 0 -15 6 -15 6 0 11 6 11 13 1 6 9 2 19 -10 11 -13 23
-23 28 -23 4 0 13 -10 19 -23 6 -12 22 -42 36 -67 25 -45 43 -140 27 -140 -5
0 -10 6 -10 13 -5 44 -7 57 -13 81 -4 16 -11 24 -18 20 -7 -5 -8 -3 -4 5 5 7
-2 32 -15 56 -19 36 -26 42 -41 34 -12 -7 -18 -6 -18 2 0 6 -11 20 -25 30 -14
12 -22 26 -18 34 3 8 9 13 14 10 4 -3 6 -12 2 -20z m-563 -24 c0 -4 -11 -13
-25 -19 -14 -6 -25 -19 -25 -27 0 -9 -4 -13 -10 -10 -16 10 -12 22 16 50 23
23 44 26 44 6z m-79 -65 c22 13 6 -24 -21 -49 -16 -16 -30 -34 -30 -40 0 -6
-7 -19 -17 -29 -9 -10 -12 -18 -6 -18 5 0 10 -7 10 -15 0 -12 -3 -12 -15 -3
-11 9 -13 9 -11 -3 1 -7 -3 -34 -10 -58 -8 -27 -11 -72 -7 -115 7 -93 9 -105
29 -143 22 -41 23 -60 2 -43 -8 7 -15 21 -15 31 0 11 -4 19 -9 19 -11 0 -32
56 -24 64 4 3 1 6 -5 6 -16 0 -16 154 -1 201 15 45 78 169 98 192 9 11 17 14
19 8 2 -6 8 -9 13 -5z m879 -116 c4 7 10 8 12 4 3 -5 -3 -17 -14 -26 -17 -17
-18 -17 -18 0 0 9 -3 28 -5 42 -5 22 -4 21 6 -4 8 -19 14 -24 19 -16z m-947
-80 c-3 -11 -9 -20 -13 -20 -5 0 -6 9 -3 20 3 11 9 20 13 20 5 0 6 -9 3 -20z
m864 -10 c1 -11 -2 -20 -8 -20 -10 0 -12 23 -2 33 9 9 9 10 10 -13z m-9 -104
c-15 -68 -84 -198 -124 -236 l-38 -35 36 45 c50 62 86 138 106 219 18 73 36
79 20 7z m-782 -276 c8 0 14 -7 14 -15 0 -8 -4 -15 -8 -15 -14 0 -43 36 -35
44 4 4 9 2 11 -3 2 -6 10 -11 18 -11z m589 -30 c-3 -5 -12 -10 -18 -10 -7 0
-6 4 3 10 19 12 23 12 15 0z m-75 -44 c0 -3 -4 -8 -10 -11 -5 -3 -10 -1 -10 4
0 6 5 11 10 11 6 0 10 -2 10 -4z"/>
<path d="M4865 3960 c-3 -5 -2 -10 4 -10 5 0 13 5 16 10 3 6 2 10 -4 10 -5 0
-13 -4 -16 -10z"/>
<path d="M4770 3909 c0 -4 6 -9 13 -12 8 -3 14 0 14 7 0 7 -6 13 -14 13 -7 0
-13 -4 -13 -8z"/>
<path d="M4056 3094 c-5 -14 -4 -15 9 -4 17 14 19 20 6 20 -5 0 -12 -7 -15
-16z"/>
<path d="M3926 2994 c-17 -12 -17 -14 -4 -14 9 0 20 5 23 11 11 17 2 18 -19 3z"/>
<path d="M3865 2941 c-6 -11 9 -23 19 -14 9 9 7 23 -3 23 -6 0 -12 -4 -16 -9z"/>
<path d="M3834 2922 c-11 -8 -12 -27 -1 -38 4 -4 7 0 7 9 0 8 5 17 12 19 7 3
8 7 2 11 -5 3 -14 3 -20 -1z"/>
<path d="M3642 3828 c-14 -14 -16 -28 -3 -28 9 0 24 30 18 36 -2 2 -9 -2 -15
-8z"/>
<path d="M3855 3780 c-3 -5 1 -10 9 -10 9 0 16 5 16 10 0 6 -4 10 -9 10 -6 0
-13 -4 -16 -10z"/>
<path d="M4506 3208 c5 -8 0 -9 -14 -6 -14 4 -20 2 -15 -5 4 -6 0 -8 -10 -4
-13 5 -15 -2 -13 -43 1 -29 9 -56 19 -68 23 -25 21 -35 -8 -49 -22 -10 -27 -8
-40 10 -19 27 -19 47 0 47 8 0 15 -9 15 -19 0 -11 5 -23 11 -27 17 -10 0 38
-22 60 -22 24 -28 20 -33 -22 -4 -37 14 -66 54 -87 87 -45 145 30 85 109 -30
40 -31 45 -5 43 18 -1 25 -14 21 -43 -2 -17 27 -37 44 -30 26 10 19 69 -12 98
-41 38 -93 63 -77 36z m40 -31 c24 -5 40 -27 42 -56 1 -17 -2 -31 -7 -31 -5 0
-8 14 -7 30 2 34 -7 45 -45 48 -21 3 -27 -2 -31 -23 -3 -14 -3 -23 0 -20 9 9
42 -48 42 -72 0 -24 -37 -56 -53 -46 -5 3 -2 10 7 15 22 13 20 33 -9 76 -14
20 -25 42 -25 49 0 22 32 45 54 38 12 -3 26 -7 32 -8z"/>
<path d="M5012 2810 c-9 -16 -20 -30 -24 -30 -5 0 -8 -7 -8 -15 0 -7 -7 -18
-16 -23 -9 -5 -15 -12 -15 -15 1 -4 -2 -7 -5 -6 -8 1 -44 -53 -44 -66 1 -15
146 -118 172 -122 26 -4 27 -5 -69 70 l-72 57 42 61 c62 91 62 91 151 28 42
-30 76 -59 76 -65 0 -15 -87 -145 -108 -161 -13 -11 -13 -13 -1 -13 8 1 39 35
70 78 73 101 73 101 56 115 -68 55 -177 137 -182 137 -3 0 -14 -13 -23 -30z"/>
<path d="M5027 2757 c-35 -28 -33 -68 4 -78 l24 -5 -25 -9 c-14 -5 -28 -8 -32
-7 -3 1 -9 -5 -12 -13 -3 -8 -1 -15 5 -15 14 0 71 29 92 48 32 28 15 98 -21
85 -10 -4 -13 -2 -8 5 10 17 5 15 -27 -11z m41 -16 c21 -13 10 -46 -16 -49
-27 -4 -40 22 -22 43 14 17 20 18 38 6z"/>
<path d="M5109 2641 c-18 -33 -37 -58 -41 -55 -4 3 -8 0 -8 -6 0 -22 43 -6 45
16 1 12 14 36 28 54 28 33 34 50 18 50 -5 0 -24 -27 -42 -59z"/>
<path d="M6425 5046 c-17 -7 -46 -33 -65 -56 -19 -24 -51 -62 -70 -85 -19 -24
-64 -83 -100 -131 -36 -48 -85 -109 -108 -136 -39 -43 -48 -48 -85 -48 -64 0
-84 -19 -22 -21 118 -4 163 10 194 62 10 17 36 42 57 57 45 30 57 44 84 93 12
22 34 43 57 54 21 10 42 24 46 32 7 11 14 9 38 -12 17 -14 37 -25 44 -25 8 0
15 -13 17 -32 2 -18 8 12 12 67 8 89 7 103 -10 134 -28 50 -52 63 -89 47z"/>
<path d="M5636 4861 c-3 -5 -15 -7 -26 -4 -20 5 -20 5 0 -43 12 -27 29 -56 38
-64 14 -14 15 -13 3 3 -8 9 -10 17 -5 17 4 0 3 5 -3 11 -14 14 -6 70 11 81 8
5 7 8 -1 8 -6 0 -14 -4 -17 -9z"/>
<path d="M5320 4835 c-11 -13 -10 -14 4 -9 9 3 16 10 16 15 0 13 -6 11 -20 -6z"/>
<path d="M5376 4842 c-2 -4 -1 -14 5 -22 7 -12 9 -10 9 8 0 23 -5 28 -14 14z"/>
<path d="M6400 4805 c0 -9 5 -15 11 -13 6 2 11 8 11 13 0 5 -5 11 -11 13 -6 2
-11 -4 -11 -13z"/>
<path d="M5390 4786 c0 -8 4 -17 9 -20 5 -4 7 3 4 14 -6 23 -13 26 -13 6z"/>
<path d="M6496 4719 c-8 -42 0 -50 9 -9 4 17 5 34 2 36 -2 3 -7 -10 -11 -27z"/>
<path d="M5450 4730 c0 -5 5 -10 10 -10 6 0 10 5 10 10 0 6 -4 10 -10 10 -5 0
-10 -4 -10 -10z"/>
<path d="M6026 4665 c-3 -9 -6 -24 -5 -33 0 -9 5 -4 10 12 9 32 6 48 -5 21z"/>
<path d="M5328 4663 c7 -3 16 -2 19 1 4 3 -2 6 -13 5 -11 0 -14 -3 -6 -6z"/>
<path d="M5265 4609 c-4 -6 -5 -12 -2 -15 2 -3 7 2 10 11 7 17 1 20 -8 4z"/>
<path d="M6457 4593 c-4 -3 -7 -16 -6 -27 0 -19 1 -19 10 3 10 24 8 36 -4 24z"/>
<path d="M6416 4475 c-9 -26 -7 -32 5 -12 6 10 9 21 6 23 -2 3 -7 -2 -11 -11z"/>
<path d="M6229 4223 l-24 -26 33 23 c33 25 38 30 24 30 -5 0 -19 -12 -33 -27z"/>
<path d="M6606 2079 c-6 -36 -9 -40 -29 -34 -19 5 -20 5 -4 -5 10 -6 28 -10
40 -8 17 2 23 11 25 39 2 25 -2 38 -11 42 -11 4 -16 -5 -21 -34z"/>
<path d="M5910 1716 c0 -8 5 -18 10 -21 6 -3 10 -19 10 -36 0 -24 4 -29 24
-29 14 0 31 -6 38 -14 9 -8 32 -13 61 -11 27 1 50 -2 52 -6 3 -4 16 -10 29
-13 14 -3 68 -26 121 -51 52 -25 98 -45 101 -45 4 0 13 -8 20 -17 7 -10 14
-13 14 -8 0 14 -81 82 -117 97 -15 7 -40 20 -54 29 -14 10 -75 39 -135 64 -94
39 -128 54 -166 73 -5 2 -8 -4 -8 -12z"/>
</g>
</svg>
